<?xml version="1.0" encoding="UTF-8" standalone="no"?>
<svg
   xmlns:dc="http://purl.org/dc/elements/1.1/"
   xmlns:cc="http://creativecommons.org/ns#"
   xmlns:rdf="http://www.w3.org/1999/02/22-rdf-syntax-ns#"
   xmlns:svg="http://www.w3.org/2000/svg"
   xmlns="http://www.w3.org/2000/svg"
   xmlns:sodipodi="http://sodipodi.sourceforge.net/DTD/sodipodi-0.dtd"
   xmlns:inkscape="http://www.inkscape.org/namespaces/inkscape"
   viewBox="0 0 17600 17600"
   version="1.1"
   id="svg10"
   sodipodi:docname="hazelcast-logo-bug.svg"
   width="400"
   height="400"
   inkscape:version="0.92.5 (2060ec1f9f, 2020-04-08)">
  <metadata
     id="metadata16">
    <rdf:RDF>
      <cc:Work
         rdf:about="">
        <dc:format>image/svg+xml</dc:format>
        <dc:type
           rdf:resource="http://purl.org/dc/dcmitype/StillImage" />
        <dc:title></dc:title>
      </cc:Work>
    </rdf:RDF>
  </metadata>
  <defs
     id="defs14" />
  <sodipodi:namedview
     pagecolor="#ffffff"
     bordercolor="#666666"
     borderopacity="1"
     objecttolerance="10"
     gridtolerance="10"
     guidetolerance="10"
     inkscape:pageopacity="0"
     inkscape:pageshadow="2"
     inkscape:window-width="1920"
     inkscape:window-height="1025"
     id="namedview12"
     showgrid="false"
     scale-x="0.6"
     units="px"
     inkscape:zoom="1"
     inkscape:cx="-51.593774"
     inkscape:cy="111.05102"
     inkscape:window-x="0"
     inkscape:window-y="28"
     inkscape:window-maximized="1"
     inkscape:current-layer="svg10" />
  <g
     id="g3726"
     transform="matrix(349.04443,0,0,349.04443,1121.0225,705.65967)">
    <path
       id="path2"
       d="M 39,0 H 23.54 V 20.48 H 44 V 5 A 5,5 0 0 0 39,0"
       inkscape:connector-curvature="0"
       style="fill:#2d7de4" />
    <g
       id="g8"
       style="fill:#041a3b">
      <path
         id="path4"
         d="M 39,25.9 H 28.58 a 5,5 0 0 0 -5,5 V 46.37 H 44 V 30.94 a 5,5 0 0 0 -5,-5"
         inkscape:connector-curvature="0" />
      <path
         id="path6"
         d="M 17.54,46.38 H 5.12 A 5.12,5.12 0 0 1 0,41.26 V 5.12 A 5.12,5.12 0 0 1 5.12,0 h 12.42 z"
         inkscape:connector-curvature="0" />
    </g>
  </g>
</svg>
